<svg width="70" height="81" viewBox="0 0 70 81" fill="none" xmlns="http://www.w3.org/2000/svg">
<path d="M47 77.652H23C18.45 77.652 14.75 73.9543 14.75 69.4071V11.5928C14.75 7.04562 18.45 3.3479 23 3.3479H47C51.55 3.3479 55.25 7.04562 55.25 11.5928V69.4071C55.25 73.9543 51.55 77.652 47 77.652ZM23 4.84698C19.3 4.84698 16.25 7.89509 16.25 11.5928V69.4071C16.25 73.1048 19.3 76.153 23 76.153H47C50.7 76.153 53.75 73.1048 53.75 69.4071V11.5928C53.75 7.89509 50.7 4.84698 47 4.84698H23Z" fill="white"/>
<path d="M51.8996 64.91H18.0996C17.6996 64.91 17.3496 64.5602 17.3496 64.1604V10.4936C17.3496 10.0938 17.6996 9.74402 18.0996 9.74402H51.8496C52.2496 9.74402 52.5996 10.0938 52.5996 10.4936V64.1604C52.6496 64.6101 52.2996 64.91 51.8996 64.91ZM18.8496 63.4109H51.0996V11.2431H18.8496V63.4109Z" fill="white"/>
<path d="M35.0002 74.1542C32.8002 74.1542 30.9502 72.3553 30.9502 70.1067C30.9502 67.9081 32.7502 66.0592 35.0002 66.0592C37.2502 66.0592 39.0502 67.8581 39.0502 70.1067C39.0502 72.3553 37.2002 74.1542 35.0002 74.1542ZM35.0002 67.6083C33.6002 67.6083 32.4502 68.7575 32.4502 70.1567C32.4502 71.5558 33.6002 72.7051 35.0002 72.7051C36.4002 72.7051 37.5502 71.5558 37.5502 70.1567C37.5502 68.7575 36.4002 67.6083 35.0002 67.6083Z" fill="white"/>
<path d="M40.8996 8.04497H29.0996C28.6996 8.04497 28.3496 7.69519 28.3496 7.29544C28.3496 6.89568 28.6996 6.5459 29.0996 6.5459H40.9496C41.3496 6.5459 41.6996 6.89568 41.6996 7.29544C41.6996 7.69519 41.3496 8.04497 40.8996 8.04497Z" fill="white"/>
</svg>
