<svg width="69" height="64" viewBox="0 0 69 64" fill="none" xmlns="http://www.w3.org/2000/svg">
<g clip-path="url(#clip0_500_4529)">
<path d="M45.333 47.2035C45.1361 47.2035 44.9885 47.1543 44.8408 47.0066C44.5455 46.7113 44.5455 46.2683 44.7916 45.973L64.2833 25.3491L59.1151 16.9815C58.9674 16.7354 58.9674 16.3908 59.1643 16.1447L63.6927 10.1889L55.7188 1.72276L49.3692 6.00504C49.1231 6.20193 48.7785 6.15271 48.5324 6.00504C46.9573 4.82372 41.8383 2.41187 40.2632 1.62432L31.2556 10.6811C30.9603 10.9764 30.5173 10.9764 30.222 10.6811C29.9267 10.3858 29.9267 9.94277 30.222 9.64744L39.6233 0.246115C39.8202 0.0492286 40.1647 -0.0492146 40.4601 0.0984502C40.7062 0.196893 46.5636 2.9533 48.9754 4.47917L55.4234 0.147672C55.7188 -0.0492146 56.1126 7.00168e-06 56.3587 0.246115L65.1693 9.64744C65.4154 9.89355 65.4154 10.3365 65.2185 10.5827L60.6409 16.6369L65.8584 25.0538C66.0553 25.3491 66.0061 25.6937 65.76 25.9398L45.8745 46.9574C45.7268 47.1051 45.5299 47.2035 45.333 47.2035Z" fill="white"/>
<path d="M30.8618 63.1513C30.7142 63.1513 30.6157 63.1021 30.4681 63.0529C30.4188 63.0037 25.3982 59.9519 19.4916 54.9806C14.0773 50.4029 6.79245 43.2166 2.95317 34.9474C2.8055 34.652 2.90395 34.3075 3.15006 34.1106L12.3053 25.8414C12.6006 25.546 13.0928 25.5953 13.3389 25.8906C13.6343 26.1859 13.585 26.6781 13.2897 26.9242L4.57748 34.8489C11.1732 48.5325 27.564 59.4597 30.7142 61.4778L31.3048 60.8379C31.5509 60.5426 32.0431 60.4934 32.3385 60.7887C32.6338 61.0348 32.683 61.527 32.3877 61.8224L31.4033 62.9545C31.3048 63.1021 31.1079 63.1513 30.8618 63.1513Z" fill="white"/>
<path d="M59.7549 17.326C59.5088 17.326 59.2627 17.2275 59.1643 16.9814L55.2266 11.0748C54.9804 10.7303 55.0789 10.2873 55.4234 10.0412C55.768 9.79508 56.211 9.89353 56.4571 10.2381L60.3948 16.1447C60.6409 16.4892 60.5425 16.9322 60.1979 17.1783C60.0503 17.2768 59.9026 17.326 59.7549 17.326Z" fill="white"/>
<path d="M40.3618 63.742C39.8203 63.742 39.2789 63.6435 38.7867 63.4467C37.2116 62.856 36.0303 61.3794 35.3412 59.2628C34.3567 56.1126 31.0096 45.973 30.1729 43.5611L24.4632 43.8072C24.2171 43.8072 23.9217 43.6596 23.7741 43.4627C23.6264 43.2166 19.9348 37.0639 17.769 29.0408C14.865 18.3104 16.1447 9.35212 21.4607 3.19942C21.6575 3.00253 21.9036 2.95331 22.1498 2.95331C22.3959 3.00253 22.5928 3.15019 22.6912 3.3963L44.3979 55.6696C44.4964 55.9158 46.416 60.9364 43.1182 62.9052C42.2322 63.4959 41.297 63.742 40.3618 63.742ZM30.7635 42.0845C31.0589 42.0845 31.3542 42.2814 31.4526 42.5767C31.5019 42.7244 35.6857 55.2267 36.7686 58.869C37.2608 60.5426 38.196 61.6747 39.3281 62.1177C40.2633 62.4622 41.3462 62.3146 42.4291 61.6747C44.644 60.3457 43.1182 56.3095 43.1182 56.2603L21.8544 5.11906C11.8624 18.2612 23.1342 39.2789 24.8569 42.3306L30.7635 42.0845C30.7143 42.0845 30.7143 42.0845 30.7635 42.0845Z" fill="white"/>
</g>
<defs>
<clipPath id="clip0_500_4529">
<rect width="68.9103" height="63.9881" fill="white"/>
</clipPath>
</defs>
</svg>
