<svg width="64" height="64" viewBox="0 0 64 64" fill="none" xmlns="http://www.w3.org/2000/svg">
<path d="M43.333 47.2035C43.1361 47.2035 42.9885 47.1543 42.8408 47.0066C42.5455 46.7113 42.5455 46.2683 42.7916 45.973L62.2833 25.3491L57.1151 16.9815C56.9674 16.7354 56.9674 16.3908 57.1643 16.1447L61.6927 10.1889L53.7188 1.72276L47.3692 6.00504C47.1231 6.20193 46.7785 6.15271 46.5324 6.00504C44.9573 4.82372 39.8383 2.41187 38.2632 1.62432L29.2556 10.6811C28.9603 10.9764 28.5173 10.9764 28.222 10.6811C27.9267 10.3858 27.9267 9.94277 28.222 9.64744L37.6233 0.246115C37.8202 0.0492286 38.1647 -0.0492146 38.4601 0.0984502C38.7062 0.196893 44.5636 2.9533 46.9754 4.47917L53.4234 0.147672C53.7188 -0.0492146 54.1126 7.00168e-06 54.3587 0.246115L63.1693 9.64744C63.4154 9.89355 63.4154 10.3365 63.2185 10.5827L58.6409 16.6369L63.8584 25.0538C64.0553 25.3491 64.0061 25.6937 63.76 25.9398L43.8745 46.9574C43.7268 47.1051 43.5299 47.2035 43.333 47.2035Z" fill="white"/>
<path d="M28.8618 63.1513C28.7142 63.1513 28.6157 63.1021 28.4681 63.0529C28.4188 63.0037 23.3982 59.9519 17.4916 54.9806C12.0773 50.4029 4.79245 43.2166 0.953169 34.9474C0.805504 34.652 0.903947 34.3075 1.15006 34.1106L10.3053 25.8414C10.6006 25.546 11.0928 25.5953 11.3389 25.8906C11.6343 26.1859 11.585 26.6781 11.2897 26.9242L2.57748 34.8489C9.17318 48.5325 25.564 59.4597 28.7142 61.4778L29.3048 60.8379C29.5509 60.5426 30.0431 60.4934 30.3385 60.7887C30.6338 61.0348 30.683 61.527 30.3877 61.8224L29.4033 62.9545C29.3048 63.1021 29.1079 63.1513 28.8618 63.1513Z" fill="white"/>
<path d="M57.7549 17.326C57.5088 17.326 57.2627 17.2275 57.1643 16.9814L53.2266 11.0748C52.9804 10.7303 53.0789 10.2873 53.4234 10.0412C53.768 9.79508 54.211 9.89353 54.4571 10.2381L58.3948 16.1447C58.6409 16.4892 58.5425 16.9322 58.1979 17.1783C58.0503 17.2768 57.9026 17.326 57.7549 17.326Z" fill="white"/>
<path d="M38.3618 63.742C37.8203 63.742 37.2789 63.6435 36.7867 63.4467C35.2116 62.856 34.0303 61.3794 33.3412 59.2628C32.3567 56.1126 29.0096 45.973 28.1729 43.5611L22.4632 43.8072C22.2171 43.8072 21.9217 43.6596 21.7741 43.4627C21.6264 43.2166 17.9348 37.0639 15.769 29.0408C12.865 18.3104 14.1447 9.35212 19.4607 3.19942C19.6575 3.00253 19.9036 2.95331 20.1498 2.95331C20.3959 3.00253 20.5928 3.15019 20.6912 3.3963L42.3979 55.6696C42.4964 55.9158 44.416 60.9364 41.1182 62.9052C40.2322 63.4959 39.297 63.742 38.3618 63.742ZM28.7635 42.0845C29.0589 42.0845 29.3542 42.2814 29.4526 42.5767C29.5019 42.7244 33.6857 55.2267 34.7686 58.869C35.2608 60.5426 36.196 61.6747 37.3281 62.1177C38.2633 62.4622 39.3462 62.3146 40.4291 61.6747C42.644 60.3457 41.1182 56.3095 41.1182 56.2603L19.8544 5.11906C9.86244 18.2612 21.1342 39.2789 22.8569 42.3306L28.7635 42.0845C28.7143 42.0845 28.7143 42.0845 28.7635 42.0845Z" fill="white"/>
</svg>
