<svg width="72" height="67" viewBox="0 0 72 67" fill="none" xmlns="http://www.w3.org/2000/svg">
<g clip-path="url(#clip0_500_4562)">
<path d="M28.0795 20.8215H12.291C11.8795 20.8215 11.5195 20.4608 11.5195 20.0485V10.9262C11.5195 10.5138 11.8795 10.1531 12.291 10.1531H28.131C28.5424 10.1531 28.9024 10.5138 28.9024 10.9262V20.0485C28.851 20.4608 28.5424 20.8215 28.0795 20.8215ZM13.0624 19.2754H27.3595V11.6992H13.0624V19.2754Z" fill="white"/>
<path d="M28.0795 36.6438H12.291C11.8795 36.6438 11.5195 36.283 11.5195 35.8707V26.7484C11.5195 26.3361 11.8795 25.9753 12.291 25.9753H28.131C28.5424 25.9753 28.9024 26.3361 28.9024 26.7484V35.8707C28.851 36.3346 28.5424 36.6438 28.0795 36.6438ZM13.0624 35.0976H27.3595V27.5215H13.0624V35.0976Z" fill="white"/>
<path d="M48.086 20.8215H32.246C31.8346 20.8215 31.4746 20.4608 31.4746 20.0485V10.9262C31.4746 10.5138 31.8346 10.1531 32.246 10.1531H48.086C48.4975 10.1531 48.8575 10.5138 48.8575 10.9262V20.0485C48.8575 20.4608 48.4975 20.8215 48.086 20.8215ZM33.0175 19.2754H47.3146V11.6992H33.0175V19.2754Z" fill="white"/>
<path d="M48.086 36.6438H32.246C31.8346 36.6438 31.4746 36.283 31.4746 35.8707V26.7484C31.4746 26.3361 31.8346 25.9753 32.246 25.9753H48.086C48.4975 25.9753 48.8575 26.3361 48.8575 26.7484V35.8707C48.8575 36.3346 48.4975 36.6438 48.086 36.6438ZM33.0175 35.0976H47.3146V27.5215H33.0175V35.0976Z" fill="white"/>
<path d="M65.829 20.8215H51.9433C51.5319 20.8215 51.1719 20.4608 51.1719 20.0485V10.9262C51.1719 10.5138 51.5319 10.1531 51.9433 10.1531H65.829C66.2404 10.1531 66.6004 10.5138 66.6004 10.9262V20.0485C66.6004 20.4608 66.2404 20.8215 65.829 20.8215ZM52.7147 19.2754H65.0576V11.6992H52.7147V19.2754Z" fill="white"/>
<path d="M65.829 36.6438H51.9433C51.5319 36.6438 51.1719 36.283 51.1719 35.8707V26.7484C51.1719 26.3361 51.5319 25.9753 51.9433 25.9753H65.829C66.2404 25.9753 66.6004 26.3361 66.6004 26.7484V35.8707C66.6004 36.3346 66.2404 36.6438 65.829 36.6438ZM52.7147 35.0976H65.0576V27.5215H52.7147V35.0976Z" fill="white"/>
<path d="M6.37753 63.8046L5.19467 63.4954C2.62324 62.7223 0.823242 60.3516 0.823242 57.7231V5.7208C0.823242 2.3708 3.49753 -0.309204 6.84038 -0.309204H65.109C68.4518 -0.309204 71.1261 2.3708 71.1261 5.7208V57.7231C71.1261 60.4031 69.3261 62.7739 66.8061 63.4954L65.5718 63.8046L65.1604 62.1554L66.3432 61.8462C68.1432 61.3308 69.4289 59.63 69.4289 57.6716V5.7208C69.4289 3.35003 67.4747 1.39157 65.109 1.39157H6.84038C4.47467 1.39157 2.52039 3.35003 2.52039 5.7208V57.7231C2.52039 59.63 3.8061 61.3308 5.65753 61.8977L6.84038 62.2069L6.37753 63.8046Z" fill="white"/>
<path d="M70.8179 44.1169H1.18359V45.8177H70.8179V44.1169Z" fill="white"/>
<path d="M36.0005 61.0731C32.2462 61.0731 29.2119 58.0323 29.2119 54.27C29.2119 50.5077 32.2462 47.4669 36.0005 47.4669C39.7548 47.4669 42.7891 50.5077 42.7891 54.27C42.7891 58.0323 39.7548 61.0731 36.0005 61.0731ZM36.0005 49.1677C33.2233 49.1677 30.9091 51.4354 30.9091 54.27C30.9091 57.0531 33.1719 59.3723 36.0005 59.3723C38.7776 59.3723 41.0919 57.1046 41.0919 54.27C41.0919 51.4869 38.7776 49.1677 36.0005 49.1677Z" fill="white"/>
<path d="M66.1893 67.4123H5.81212C5.34926 67.4123 4.98926 67.0515 4.98926 66.5877C4.98926 63.4438 5.76069 61.1246 7.25212 59.6815C8.8464 58.1869 10.6464 58.29 10.6978 58.29H28.3378C28.6464 58.29 28.9035 58.4446 29.0578 58.7023C29.0578 58.7538 31.2693 62.31 36.0007 62.31C40.7321 62.31 42.9435 58.7023 42.9435 58.7023C43.0978 58.4446 43.355 58.29 43.6635 58.29H61.355C61.355 58.29 63.155 58.1869 64.7493 59.6815C66.2407 61.1246 67.0121 63.4438 67.0121 66.5877C67.0121 67 66.6521 67.4123 66.1893 67.4123ZM6.6864 65.7115H65.315C65.2121 63.4954 64.6464 61.8977 63.6178 60.9184C62.5893 59.9392 61.4578 59.9907 61.4064 59.9907H44.1264C43.2521 61.1761 40.7321 64.0107 36.0007 64.0107C31.2178 64.0107 28.6464 61.0215 27.875 59.9907H10.6464C10.4407 59.9907 9.36069 60.0423 8.38354 60.9184C7.35497 61.8461 6.78926 63.4954 6.6864 65.7115Z" fill="white"/>
<path d="M65.8287 42.6738H6.58295C6.17152 42.6738 5.81152 42.313 5.81152 41.9007V4.94764C5.81152 4.53533 6.17152 4.17456 6.58295 4.17456H65.8287C66.2401 4.17456 66.6001 4.53533 66.6001 4.94764V41.9007C66.6001 42.313 66.2401 42.6738 65.8287 42.6738ZM7.35438 41.1276H65.0572V5.72071H7.35438V41.1276Z" fill="white"/>
</g>
<defs>
<clipPath id="clip0_500_4562">
<rect width="72" height="67" fill="white"/>
</clipPath>
</defs>
</svg>
