<svg width="70" height="64" viewBox="0 0 70 64" fill="none" xmlns="http://www.w3.org/2000/svg">
<path d="M19.4 59.52C17.75 59.52 16.2 58.8308 14.85 57.4523C10.05 52.7262 9.10005 51.3477 9.05005 51.2492C9.05005 51.2492 5.55005 46.5723 10.35 41.9939L44.45 8.12309C44.75 7.77847 47.2 5.02155 50.45 4.87385C52.2 4.77539 53.85 5.46462 55.3 6.94155C60.1 11.6677 61.05 13.0462 61.1 13.1446C61.1 13.1446 64.6 17.8215 59.65 22.4L25.7 56.2708C25.4 56.6154 22.95 59.3723 19.7 59.52C19.6 59.52 19.5 59.52 19.4 59.52ZM50.75 6.40001C50.7 6.40001 50.6 6.40001 50.55 6.40001C47.85 6.5477 45.6 9.1077 45.6 9.15693L45.55 9.20616L11.4 43.1262C7.55005 46.7692 10.15 50.3139 10.25 50.4615C10.3 50.5108 11.25 51.8892 15.9 56.4677C17.05 57.6 18.3 58.1415 19.6 58.0923C22.3 57.9446 24.55 55.3846 24.55 55.3354L24.6 55.2862L58.6 21.3662C62.55 17.7231 60 14.1785 59.9 14.0308C59.85 13.9815 58.9 12.6031 54.25 8.02462C53.15 6.94155 52 6.40001 50.75 6.40001Z" fill="white"/>
<path d="M45.8627 7.88409L44.7734 8.89948L58.1453 22.8068L59.2346 21.7914L45.8627 7.88409Z" fill="white"/>
<path d="M12.0122 41.6581L10.9229 42.6735L24.2947 56.5808L25.384 55.5654L12.0122 41.6581Z" fill="white"/>
<path d="M8.9 63.4092C7.4 63.4092 5.9 62.8677 4.75 61.7354C2.5 59.52 2.5 55.7785 4.75 53.5631L8.65 49.7231L9.7 50.7569L5.8 54.5969C4.15 56.2215 4.15 59.0277 5.8 60.6523C7.45 62.2769 10.3 62.2769 11.95 60.6523L15.85 56.8123L16.9 57.8462L13 61.6862C11.95 62.8677 10.4 63.4092 8.9 63.4092Z" fill="white"/>
<path d="M61.2002 14.2277L60.1502 13.1939L64.0502 9.35386C65.7002 7.72924 65.7002 4.92309 64.0502 3.29847C62.4002 1.67386 59.5502 1.67386 57.9002 3.29847L54.0002 7.13847L52.9502 6.10463L56.8502 2.26463C59.1002 0.0492422 62.9002 0.0492422 65.1502 2.26463C67.4002 4.48001 67.4002 8.22155 65.1502 10.4369L61.2002 14.2277Z" fill="white"/>
<path d="M10.2495 36.0862C9.89953 36.0862 9.54953 35.84 9.49953 35.4462C9.49953 35.2985 8.94953 31.6062 9.59953 27.0277C10.4995 20.8738 13.1495 16 17.2995 12.9969C17.4495 12.8985 21.1495 10.3385 23.9995 10.1908C26.4495 10.0431 29.8995 7.82769 29.9495 7.77846C30.0495 7.68 33.1995 5.61231 39.4995 5.12C39.8995 5.07077 40.2495 5.41538 40.2995 5.80923C40.3495 6.20308 39.9995 6.54769 39.5995 6.59692C33.6995 7.04 30.8495 8.96 30.7995 8.96C30.6495 9.05846 26.9495 11.4708 24.0995 11.6185C21.6495 11.7662 18.1995 14.1292 18.1495 14.1292C8.94953 20.9231 10.9995 35.1015 10.9995 35.2C11.0495 35.5938 10.7995 35.9877 10.3495 36.0369C10.3495 36.0861 10.2995 36.0862 10.2495 36.0862Z" fill="white"/>
<path d="M39.4 60.4554C37 60.4554 34 60.0615 29.95 59.0277C29.55 58.9292 29.3 58.5354 29.4 58.1415C29.5 57.7477 29.9 57.5015 30.3 57.6C40.1 60.0615 43.35 58.88 46.9 56.9108C50.3 55.04 53.25 48 53.9 45.6369C54.55 43.52 56.2 41.1569 60.2 36.6277C64.05 32.5415 62.05 27.3723 62 27.3231C61.85 26.9292 62.05 26.5354 62.4 26.3877C62.8 26.24 63.2 26.4369 63.35 26.7815C63.45 27.0277 65.75 32.8861 61.25 37.6123C57.45 41.8954 55.85 44.16 55.25 46.08C54.7 47.9508 51.65 55.9261 47.55 58.1908C45.35 59.4215 43.1 60.4554 39.4 60.4554Z" fill="white"/>
</svg>
