<svg width="92" height="85" viewBox="0 0 92 85" fill="none" xmlns="http://www.w3.org/2000/svg">
<path d="M78.6598 34.5231H1.24841C0.722695 34.5231 0.262695 34.0654 0.262695 33.5423C0.262695 33.0192 0.722695 32.5615 1.24841 32.5615H78.6598C79.1856 32.5615 79.6456 33.0192 79.6456 33.5423C79.6456 34.0654 79.1856 34.5231 78.6598 34.5231Z" fill="white"/>
<path d="M78.66 37.6615C78.1343 37.6615 77.6743 37.2038 77.6743 36.6807V30.6C77.6743 30.3384 77.8057 30.0769 77.9372 29.8807C78.1343 29.6846 78.3972 29.6192 78.66 29.6192H90.7515C91.0143 29.6192 91.2772 29.75 91.4743 29.8807C91.6715 30.0769 91.7372 30.3384 91.7372 30.6V36.6807C91.7372 37.2038 91.2772 37.6615 90.7515 37.6615H78.66ZM79.6457 31.5154V35.6346H89.7657V31.5154H79.6457Z" fill="white"/>
<path d="M49.2198 58.7154H16.4941C10.317 58.7154 5.58555 54.2692 2.69412 45.9C0.656981 39.8192 0.262695 33.8039 0.262695 33.5423C0.262695 33.0193 0.656981 32.5616 1.1827 32.4962C1.70841 32.4308 2.16841 32.8885 2.23412 33.4116C2.23412 33.6731 3.67984 56.7539 16.4941 56.7539H49.2198C61.9027 56.7539 63.4798 33.6731 63.4798 33.4116C63.5456 32.8885 64.0056 32.4962 64.5313 32.4962C65.057 32.5616 65.517 33.0193 65.4513 33.5423C65.4513 33.8039 65.057 39.8192 62.9541 45.9C60.0627 54.3346 55.3313 58.7154 49.2198 58.7154Z" fill="white"/>
<path d="M16.8887 51.7192C16.7572 51.7192 16.6258 51.7192 16.4944 51.6538C13.3401 50.3461 11.1715 48.0577 9.85724 44.7884C9.6601 44.2654 9.92296 43.7423 10.383 43.4807C10.9087 43.2846 11.4344 43.5461 11.6315 44.0038C12.7487 46.8154 14.5887 48.6461 17.2172 49.7577C17.743 49.9538 17.9401 50.5423 17.743 51.0654C17.6115 51.4577 17.283 51.7192 16.8887 51.7192Z" fill="white"/>
<path fill-rule="evenodd" clip-rule="evenodd" d="M22.277 64.0115C22.277 64.0115 24.117 67.5423 24.117 68.4577C24.117 69.5692 23.197 70.2885 22.277 70.2885C21.1599 70.2885 20.437 69.3731 20.437 68.4577C20.437 67.3461 22.277 64.0115 22.277 64.0115ZM29.3742 64.0115C29.3742 64.0115 31.2142 67.5423 31.2142 68.4577C31.2142 69.5692 30.2942 70.2885 29.3742 70.2885C28.257 70.2885 27.5342 69.3731 27.5342 68.4577C27.2713 67.5423 28.9799 64.6 29.3742 64.0115ZM36.2084 64.0115C36.2084 64.0115 38.0484 67.5423 38.0484 68.4577C38.0484 69.5692 37.1284 70.2885 36.2084 70.2885C35.0913 70.2885 34.3684 69.3731 34.3684 68.4577C34.3684 67.3461 36.2084 64.0115 36.2084 64.0115ZM43.3056 64.0115C43.3056 64.0115 45.1456 67.5423 45.1456 68.4577C45.1456 69.5692 44.2256 70.2885 43.3056 70.2885C42.1884 70.2885 41.4656 69.3731 41.4656 68.4577C41.2684 67.3461 43.3056 64.0115 43.3056 64.0115Z" fill="white"/>
<path d="M20.9631 26.5461C20.6345 26.5461 20.3059 26.35 20.1088 26.0884C19.8459 25.6308 19.9774 25.0423 20.4374 24.7154C21.0945 24.3231 21.8831 23.7346 21.9488 23.0154C22.0145 22.2961 21.3574 21.6423 21.3574 21.6423C20.1088 20.5308 19.4517 19.2231 19.4517 17.85C19.5174 15.6923 21.2917 14.2538 21.4231 14.1884C21.8831 13.8615 22.4745 13.9269 22.8031 14.3192C23.1317 14.7115 23.0659 15.3654 22.6717 15.6923C22.6717 15.6923 21.4888 16.6731 21.4888 17.85C21.4888 18.5692 21.8831 19.3538 22.7374 20.0731C22.8688 20.2038 24.1174 21.3808 23.9202 23.0808C23.7888 24.3231 22.9345 25.3692 21.4888 26.2846C21.3574 26.4808 21.1602 26.5461 20.9631 26.5461Z" fill="white"/>
<path d="M31.9372 26.5461C31.6086 26.5461 31.2801 26.35 31.0829 26.0884C30.8201 25.6308 30.9515 25.0423 31.4115 24.7154C32.0686 24.3231 32.8572 23.7346 32.9229 23.0154C32.9886 22.2961 32.3972 21.7077 32.3315 21.6423C31.0172 20.4654 30.4258 19.2231 30.4258 17.85C30.4915 15.6923 32.2658 14.2538 32.3972 14.1884C32.8572 13.8615 33.4486 13.9269 33.7772 14.3192C34.1058 14.7115 34.0401 15.3654 33.6458 15.6923C33.6458 15.6923 32.4629 16.6731 32.4629 17.85C32.4629 18.5692 32.8572 19.3538 33.7115 20.0731C33.8429 20.2038 35.0915 21.3808 34.8944 23.0808C34.7629 24.3231 33.9086 25.3692 32.4629 26.2846C32.3315 26.4808 32.1344 26.5461 31.9372 26.5461Z" fill="white"/>
<path d="M42.9113 26.5461C42.5828 26.5461 42.2542 26.35 42.057 26.0884C41.7942 25.6308 41.9256 25.0423 42.3856 24.7154C43.0428 24.3231 43.8313 23.7346 43.897 23.0154C43.9628 22.2961 43.3713 21.7077 43.3056 21.6423C41.9913 20.4654 41.3999 19.2231 41.3999 17.85C41.4656 15.6923 43.2399 14.2538 43.3713 14.1884C43.8313 13.8615 44.4228 13.9269 44.7513 14.3192C45.0799 14.7115 45.0142 15.3654 44.6199 15.6923C44.6199 15.6923 43.437 16.6731 43.437 17.85C43.437 18.5692 43.8313 19.3538 44.6856 20.0731C44.817 20.2038 46.0656 21.3808 45.8685 23.0808C45.737 24.3231 44.8828 25.3692 43.437 26.2846C43.3056 26.4808 43.1085 26.5461 42.9113 26.5461Z" fill="white"/>
</svg>
