<svg xmlns="http://www.w3.org/2000/svg" xmlns:xlink="http://www.w3.org/1999/xlink" width="77" height="74" viewBox="0 0 77 74">
  <defs>
    <clipPath id="clip-path">
      <rect id="Rectangle_4" data-name="Rectangle 4" width="77" height="74" transform="translate(251 372)" fill="rgba(255,255,255,0.59)"/>
    </clipPath>
    <clipPath id="clip-path-2">
      <rect id="Rectangle_1" data-name="Rectangle 1" width="76" height="71" transform="translate(14.037 8)" fill="#fff"/>
    </clipPath>
    <clipPath id="clip-path-3">
      <rect id="Rectangle_2" data-name="Rectangle 2" width="76.315" height="70.864" transform="translate(0 53.963) rotate(-45)" fill="#fff"/>
    </clipPath>
  </defs>
  <g id="Mask_Group_1" data-name="Mask Group 1" transform="translate(-251 -372)" clip-path="url(#clip-path)">
    <g id="control" transform="translate(237 365)">
      <g id="Group_1" data-name="Group 1" clip-path="url(#clip-path-2)">
        <path id="Path_1" data-name="Path 1" d="M20.769,75.614l-1.249-.328a6.468,6.468,0,0,1-4.614-6.117V14.062a6.344,6.344,0,0,1,6.351-6.39H82.763a6.344,6.344,0,0,1,6.351,6.39V69.169a6.385,6.385,0,0,1-4.56,6.117l-1.3.328-.434-1.748,1.249-.328a4.584,4.584,0,0,0,3.257-4.424V14.062a4.6,4.6,0,0,0-4.56-4.588H21.257a4.6,4.6,0,0,0-4.56,4.588V69.169a4.667,4.667,0,0,0,3.311,4.424l1.249.328Z" fill="#fff"/>
        <path id="Path_2" data-name="Path 2" d="M88.788,54.751h-73.5v1.8h73.5Z" fill="#fff"/>
        <path id="Path_3" data-name="Path 3" d="M52.037,72.719A7.209,7.209,0,1,1,59.2,65.51,7.181,7.181,0,0,1,52.037,72.719Zm0-12.616a5.407,5.407,0,1,0,5.374,5.407A5.4,5.4,0,0,0,52.037,60.1Z" fill="#fff"/>
        <path id="Path_4" data-name="Path 4" d="M83.9,79.437H20.171a.86.86,0,0,1-.869-.874c0-3.332.814-5.789,2.389-7.318a5.249,5.249,0,0,1,3.637-1.475h18.62a.865.865,0,0,1,.76.437,8.716,8.716,0,0,0,7.329,3.823,8.858,8.858,0,0,0,7.329-3.823.865.865,0,0,1,.76-.437H78.8a5.228,5.228,0,0,1,3.583,1.475c1.574,1.529,2.389,3.987,2.389,7.318A.9.9,0,0,1,83.9,79.437Zm-62.809-1.8H82.98q-.163-3.523-1.791-5.079a3.371,3.371,0,0,0-2.334-.983H60.614a10.419,10.419,0,0,1-8.577,4.26,10.576,10.576,0,0,1-8.577-4.26H25.274a3.761,3.761,0,0,0-2.389.983C21.8,73.538,21.2,75.286,21.094,77.635Z" fill="#fff"/>
        <path id="Path_5" data-name="Path 5" d="M83.523,53.222H20.986a.837.837,0,0,1-.814-.819V13.243a.837.837,0,0,1,.814-.819H83.523a.837.837,0,0,1,.814.819V52.4A.837.837,0,0,1,83.523,53.222ZM21.8,51.583H82.709V14.062H21.8Z" fill="#fff"/>
      </g>
      <g id="Group_2" data-name="Group 2" clip-path="url(#clip-path-3)">
        <path id="Path_6" data-name="Path 6" d="M55.5,44.789a.838.838,0,0,1-1.156,0,3.4,3.4,0,0,0-4.78,0,.818.818,0,0,1-1.156-1.156,5,5,0,0,1,7.092,0A.838.838,0,0,1,55.5,44.789Z" fill="#fff"/>
        <path id="Path_7" data-name="Path 7" d="M60.978,39.084a.838.838,0,0,1-1.156,0,11.132,11.132,0,0,0-15.726,0,.818.818,0,0,1-1.156-1.156,12.772,12.772,0,0,1,18.039,0A.8.8,0,0,1,60.978,39.084Z" fill="#fff"/>
        <path id="Path_8" data-name="Path 8" d="M66.413,33.573a.839.839,0,0,1-1.156,0,18.844,18.844,0,0,0-26.6,0A.818.818,0,0,1,37.5,32.416a20.449,20.449,0,0,1,28.909,0A.839.839,0,0,1,66.413,33.573Z" fill="#fff"/>
        <path id="Path_9" data-name="Path 9" d="M71.886,27.945a.838.838,0,0,1-1.156,0,26.579,26.579,0,0,0-37.543,0,.818.818,0,0,1-1.156-1.156,28.219,28.219,0,0,1,39.855,0A.8.8,0,0,1,71.886,27.945Z" fill="#fff"/>
      </g>
    </g>
  </g>
</svg>
