<svg width="71" height="67" viewBox="0 0 71 67" fill="none" xmlns="http://www.w3.org/2000/svg">
<path d="M43.9694 11.0292H27.0308C20.9451 11.0292 18.8151 4.9477 18.5615 1.70078C18.5615 1.49462 18.6122 1.28847 18.7644 1.13385C18.9165 0.979237 19.1194 0.87616 19.3222 0.87616H51.7794C51.9822 0.87616 52.1851 0.979237 52.3372 1.13385C52.4894 1.28847 52.5401 1.49462 52.5401 1.70078C52.2358 4.89616 50.2072 11.0292 43.9694 11.0292ZM20.1844 2.37077C20.3365 3.14385 20.6408 4.38077 21.2494 5.6177C22.5172 8.19462 24.4444 9.48308 27.0308 9.48308H44.0201C46.6572 9.48308 48.6351 8.19462 49.8522 5.6177C50.4608 4.38077 50.7144 3.14385 50.8665 2.37077H20.1844Z" fill="white"/>
<path d="M30.3271 18.3992C29.9214 18.3992 29.5664 18.0385 29.5664 17.6262V10.2562C29.5664 9.84386 29.9214 9.48309 30.3271 9.48309C30.7328 9.48309 31.0878 9.84386 31.0878 10.2562V17.6262C31.0878 18.0385 30.7835 18.3992 30.3271 18.3992Z" fill="white"/>
<path d="M40.6728 18.3992C40.2671 18.3992 39.9121 18.0385 39.9121 17.6262V10.2562C39.9121 9.84386 40.2671 9.48309 40.6728 9.48309C41.0785 9.48309 41.4335 9.84386 41.4335 10.2562V17.6262C41.4335 18.0385 41.0785 18.3992 40.6728 18.3992Z" fill="white"/>
<path d="M58.8285 66.1754H12.1714C11.7656 66.1754 11.4106 65.8146 11.4106 65.4023V42.4161C11.4106 28.9131 22.2128 17.9354 35.4999 17.9354C48.7871 17.9354 59.5892 28.9131 59.5892 42.4161V65.3507C59.5892 65.8146 59.2849 66.1754 58.8285 66.1754ZM12.9321 64.6292H58.1185V42.4677C58.1185 29.7892 47.9756 19.5331 35.5506 19.5331C23.0749 19.5331 12.9828 29.8407 12.9828 42.4677V64.6292H12.9321Z" fill="white"/>
<path d="M35.5002 57.6715C27.6395 57.6715 21.2495 51.1777 21.2495 43.1892C21.2495 35.2008 27.6395 28.7069 35.5002 28.7069C43.3609 28.7069 49.7509 35.2008 49.7509 43.1892C49.7509 51.1777 43.3609 57.6715 35.5002 57.6715ZM35.5002 30.2531C28.5017 30.2531 22.7709 36.0769 22.7709 43.1892C22.7709 50.3015 28.5017 56.1254 35.5002 56.1254C42.4988 56.1254 48.2295 50.3015 48.2295 43.1892C48.2295 36.0769 42.4988 30.2531 35.5002 30.2531Z" fill="white"/>
<path d="M35.5 43.9623C35.0943 43.9623 34.7393 43.6016 34.7393 43.1893V37.52C34.7393 37.1077 35.0943 36.7469 35.5 36.7469C35.9057 36.7469 36.2607 37.1077 36.2607 37.52V43.2408C36.2607 43.6531 35.9057 43.9623 35.5 43.9623Z" fill="white"/>
</svg>
