<svg width="80" height="74" viewBox="0 0 80 74" fill="none" xmlns="http://www.w3.org/2000/svg">
<path fill-rule="evenodd" clip-rule="evenodd" d="M30 66.5431C30 66.5431 31.9428 70.1862 31.9428 71.2108C31.9428 72.4062 30.8571 73.1462 30 73.1462C28.8 73.1462 28.0571 72.0646 28.0571 71.2108C28.2286 69.9585 30 66.5431 30 66.5431ZM37.2571 66.5431C37.2571 66.5431 39.2 70.1862 39.2 71.2108C39.2 72.4062 38.1143 73.1462 37.2571 73.1462C36.0571 73.1462 35.3143 72.0646 35.3143 71.2108C35.3143 70.1292 36.9714 67.1123 37.2571 66.5431ZM44.6857 66.5431C44.6857 66.5431 46.6286 70.1862 46.6286 71.2108C46.6286 72.4062 45.5428 73.1462 44.6857 73.1462C43.4857 73.1462 42.7428 72.0646 42.7428 71.2108C42.5714 69.9585 44.6857 66.5431 44.6857 66.5431ZM51.9428 66.5431C51.9428 66.5431 53.8857 70.1862 53.8857 71.2108C53.8857 72.4062 52.8 73.1462 51.9428 73.1462C50.7428 73.1462 50 72.0646 50 71.2108C49.6571 69.9585 51.9428 66.5431 51.9428 66.5431Z" fill="white"/>
<path d="M72.6855 22.0292H66.6284C66.1713 22.0292 65.7713 21.6308 65.7713 21.1754V14.9708H49.5427C49.0855 14.9708 48.6855 14.5723 48.6855 14.1169C48.6855 13.6615 49.0855 13.2631 49.5427 13.2631H66.6284C67.0855 13.2631 67.4855 13.6615 67.4855 14.1169V20.3215H72.6855C73.1427 20.3215 73.5427 20.72 73.5427 21.1754C73.5427 21.6308 73.1427 22.0292 72.6855 22.0292Z" fill="white"/>
<path d="M76.5715 25.9569C76.1143 25.9569 75.7143 25.5585 75.7143 25.1031C75.7143 23.4523 74.2858 22.0292 72.6286 22.0292C72.1715 22.0292 71.7715 21.6308 71.7715 21.1754C71.7715 20.72 72.1715 20.3215 72.6286 20.3215C75.2001 20.3215 77.4286 22.4846 77.4286 25.1031C77.4286 25.5585 77.0858 25.9569 76.5715 25.9569Z" fill="white"/>
<path d="M13.3713 22.0293H7.31417C6.85703 22.0293 6.45703 21.6308 6.45703 21.1754C6.45703 20.72 6.85703 20.3216 7.31417 20.3216H12.5142V14.1169C12.5142 13.6616 12.9142 13.2631 13.3713 13.2631H42.7427V12.6369C42.7427 10.9862 41.3142 9.5631 39.657 9.5631C39.1999 9.5631 38.7999 9.16464 38.7999 8.70925C38.7999 8.25387 39.1999 7.85541 39.657 7.85541C42.2285 7.85541 44.457 10.0185 44.457 12.6369V14.1169C44.457 14.5723 44.057 14.9708 43.5999 14.9708H14.2285V21.1754C14.2285 21.6308 13.8285 22.0293 13.3713 22.0293Z" fill="white"/>
<path d="M35.4856 13.4338C35.0284 13.4338 34.6284 13.0354 34.6284 12.58C34.6284 9.96154 36.857 7.79846 39.5427 7.79846C39.9998 7.79846 40.3998 8.19692 40.3998 8.65231C40.3998 9.10769 39.9998 9.50615 39.5427 9.50615C37.7713 9.50615 36.3427 10.9292 36.3427 12.58C36.3427 13.0354 35.9427 13.4338 35.4856 13.4338Z" fill="white"/>
<path d="M3.42843 25.9569C2.97129 25.9569 2.57129 25.5585 2.57129 25.1031C2.57129 22.5415 4.74272 20.3215 7.37129 20.3215C7.82843 20.3215 8.22843 20.72 8.22843 21.1754C8.22843 21.6308 7.82843 22.0292 7.37129 22.0292C5.71415 22.0292 4.28557 23.4523 4.28557 25.1031C4.28557 25.5585 3.88557 25.9569 3.42843 25.9569Z" fill="white"/>
<path d="M61.1999 61.0215H19.1427C15.4856 61.0215 12.5142 58.0615 12.5142 54.4185V21.1754C12.5142 20.72 12.9142 20.3215 13.3713 20.3215H66.7427C67.1999 20.3215 67.5999 20.72 67.5999 21.1754C67.5999 21.6308 67.1999 22.0292 66.7427 22.0292H14.2284V54.4754C14.2284 57.1508 16.3999 59.3708 19.1427 59.3708H61.1999C63.8856 59.3708 66.1142 57.2077 66.1142 54.4754V26.9246C66.1142 26.4692 66.5142 26.0708 66.9713 26.0708C67.4284 26.0708 67.8284 26.4692 67.8284 26.9246V54.4754C67.7713 58.1185 64.7999 61.0215 61.1999 61.0215Z" fill="white"/>
<path d="M20.1716 39.5046C19.7145 39.5046 19.3145 39.1062 19.3145 38.6508V27.7785C19.3145 27.3231 19.7145 26.9246 20.1716 26.9246C20.6287 26.9246 21.0287 27.3231 21.0287 27.7785V38.6508C21.0287 39.1062 20.6859 39.5046 20.1716 39.5046Z" fill="white"/>
<path d="M59.6569 53.7923C59.1998 53.7923 58.7998 53.3938 58.7998 52.9385V42.1231C58.7998 41.6677 59.1998 41.2692 59.6569 41.2692C60.1141 41.2692 60.5141 41.6677 60.5141 42.1231V52.9385C60.5141 53.4508 60.1141 53.7923 59.6569 53.7923Z" fill="white"/>
<path d="M18.8001 11.9538C18.5144 11.9538 18.2287 11.7831 18.0572 11.5554C17.8287 11.1569 17.943 10.6446 18.343 10.36C18.9715 9.96153 19.7144 9.3923 19.8287 8.6523C19.8858 7.9123 19.3144 7.34307 19.2572 7.34307C18.0572 6.26153 17.4858 5.06614 17.543 3.81383C17.6001 1.82153 19.2572 0.569219 19.3715 0.512296C19.7715 0.227681 20.2858 0.284604 20.5715 0.683065C20.8572 1.08153 20.8001 1.59383 20.4001 1.87845C20.4001 1.87845 19.3144 2.78922 19.2572 3.92768C19.2572 4.66768 19.6572 5.40768 20.4572 6.14768C20.5715 6.26153 21.7144 7.34307 21.543 8.87999C21.4287 10.0184 20.6858 11.0431 19.2572 11.84C19.143 11.8969 18.9715 11.9538 18.8001 11.9538Z" fill="white"/>
<path d="M27.5999 11.9538C27.3142 11.9538 27.0285 11.7831 26.8571 11.5554C26.6285 11.1569 26.7428 10.6446 27.1428 10.36C27.7713 9.96153 28.5142 9.3923 28.6285 8.6523C28.6856 7.9123 28.1142 7.34307 28.057 7.34307C26.857 6.26153 26.2856 5.06614 26.3428 3.81383C26.3999 1.82153 28.057 0.569219 28.1713 0.512296C28.5713 0.227681 29.0856 0.284604 29.3713 0.683065C29.6571 1.08153 29.5999 1.59383 29.1999 1.87845C29.1999 1.87845 28.1142 2.78922 28.057 3.92768C28.057 4.66768 28.4571 5.40768 29.2571 6.14768C29.3713 6.26153 30.5142 7.34307 30.3428 8.87999C30.2285 10.0184 29.4856 11.0431 28.057 11.84C27.8856 11.8969 27.7713 11.9538 27.5999 11.9538Z" fill="white"/>
<path d="M50.1141 11.9538C49.8284 11.9538 49.5426 11.7831 49.3712 11.5554C49.1426 11.1569 49.2569 10.6446 49.6569 10.36C50.2855 9.96153 51.0284 9.3923 51.1426 8.6523C51.1998 7.9123 50.6284 7.34307 50.5712 7.34307C49.3712 6.26153 48.7998 5.06614 48.8569 3.81383C48.9141 1.82153 50.5712 0.569219 50.6855 0.512296C51.0855 0.227681 51.5998 0.284604 51.8855 0.683065C52.1712 1.08153 52.1141 1.59383 51.7141 1.87845C51.7141 1.87845 50.6284 2.78922 50.5712 3.92768C50.5712 4.66768 50.9712 5.40768 51.7712 6.14768C51.8855 6.26153 53.0284 7.34307 52.8569 8.87999C52.7426 10.0184 51.9998 11.0431 50.5712 11.84C50.4569 11.8969 50.2855 11.9538 50.1141 11.9538Z" fill="white"/>
<path d="M58.9144 11.9538C58.6286 11.9538 58.3429 11.7831 58.1715 11.5554C57.9429 11.1569 58.0572 10.6446 58.4572 10.36C59.0858 9.96153 59.8286 9.3923 59.9429 8.6523C60.0001 7.9123 59.4286 7.34307 59.3715 7.34307C58.1715 6.26153 57.6001 5.06614 57.6572 3.81383C57.7144 1.82153 59.3715 0.569219 59.4858 0.512296C59.8858 0.227681 60.4001 0.284604 60.6858 0.683065C60.9715 1.08153 60.9144 1.59383 60.5144 1.87845C60.5144 1.87845 59.4286 2.78922 59.3715 3.92768C59.3715 4.66768 59.7715 5.40768 60.5715 6.14768C60.6858 6.26153 61.8286 7.34307 61.6572 8.87999C61.5429 10.0184 60.8001 11.0431 59.3715 11.84C59.2001 11.8969 59.0858 11.9538 58.9144 11.9538Z" fill="white"/>
</svg>
