<svg width="80" height="75" viewBox="0 0 80 75" fill="none" xmlns="http://www.w3.org/2000/svg">
<path d="M32.8571 69.4038H9.02853C8.57139 69.4038 8.17139 69 8.17139 68.5384V44.4807C8.17139 44.0192 8.57139 43.6154 9.02853 43.6154C9.48567 43.6154 9.88567 44.0192 9.88567 44.4807V67.6731H32.8571C33.3142 67.6731 33.7142 68.0769 33.7142 68.5384C33.7142 69 33.3714 69.4038 32.8571 69.4038Z" fill="white"/>
<path d="M70.9714 69.4039H40.9142C40.4571 69.4039 40.0571 69 40.0571 68.5385C40.0571 68.077 40.4571 67.6731 40.9142 67.6731H70.1142V7.61541H9.88567V36.4039C9.88567 36.8654 9.48567 37.2693 9.02853 37.2693C8.57139 37.2693 8.17139 36.8654 8.17139 36.4039V6.75003C8.17139 6.28849 8.57139 5.88464 9.02853 5.88464H70.9714C71.4285 5.88464 71.8285 6.28849 71.8285 6.75003V68.5385C71.8285 69.0577 71.4285 69.4039 70.9714 69.4039Z" fill="white"/>
<path d="M32.8571 69.4038H9.02853C8.57139 69.4038 8.17139 69 8.17139 68.5384V44.4807C8.17139 44.0192 8.57139 43.6154 9.02853 43.6154H32.8571C33.3142 43.6154 33.7142 44.0192 33.7142 44.4807V68.5384C33.7142 69.0577 33.3714 69.4038 32.8571 69.4038ZM9.88567 67.6731H32V45.3461H9.88567V67.6731Z" fill="white"/>
<path d="M58.8574 38.9423H39.7717C39.3146 38.9423 38.9146 38.5385 38.9146 38.077V18.4616C38.9146 18 39.3146 17.5962 39.7717 17.5962C40.2288 17.5962 40.6288 18 40.6288 18.4616V37.2116H58.8574C59.3146 37.2116 59.7146 37.6154 59.7146 38.077C59.7146 38.5385 59.3146 38.9423 58.8574 38.9423Z" fill="white"/>
<path d="M39.7715 38.9424C39.5429 38.9424 39.3143 38.8847 39.1429 38.7116C38.8 38.3654 38.8 37.8462 39.1429 37.5001L61.2 15.4039C61.5429 15.0577 62.0572 15.0577 62.4 15.4039C62.7429 15.7501 62.7429 16.2693 62.4 16.6154L40.3429 38.7116C40.1715 38.8847 40 38.9424 39.7715 38.9424Z" fill="white"/>
</svg>
