<svg width="82" height="75" viewBox="0 0 82 75" fill="none" xmlns="http://www.w3.org/2000/svg">
<path d="M13.8815 62.9423C13.4129 62.9423 13.0029 62.5385 13.0029 62.0769V10.2115C13.0029 5.30769 16.8686 1.5 21.8472 1.5H68.1186C68.5872 1.5 68.9972 1.90385 68.9972 2.36538V55.7885C68.9972 56.25 68.5872 56.6538 68.1186 56.6538H63.3744C62.9058 56.6538 62.4958 56.25 62.4958 55.7885C62.4958 55.3269 62.9058 54.9231 63.3744 54.9231H67.2401V3.23077H21.8472C17.8644 3.23077 14.7601 6.28846 14.7601 10.2115V62.0769C14.7601 62.5385 14.3501 62.9423 13.8815 62.9423Z" fill="white"/>
<path d="M68.1186 70.8461H41.0001C40.5315 70.8461 40.1215 70.4422 40.1215 69.9807C40.1215 69.5192 40.5315 69.1153 41.0001 69.1153H67.2401V56.7115H21.2029C17.6301 56.7115 14.8186 59.3653 14.7601 62.8269C14.8186 66.2884 17.6886 69.0576 21.2029 69.0576H25.0686C25.5372 69.0576 25.9472 69.4615 25.9472 69.923C25.9472 70.3846 25.5372 70.7884 25.0686 70.7884H21.2029C16.7515 70.7884 13.1201 67.3269 13.0029 62.9422V62.8846V62.7115V62.6538C13.1201 58.3269 16.6929 54.9807 21.2029 54.9807H68.1186C68.5872 54.9807 68.9972 55.3846 68.9972 55.8461V69.9807C68.9972 70.4422 68.5872 70.8461 68.1186 70.8461Z" fill="white"/>
<path d="M61.7928 64.5H37.7785C37.3099 64.5 36.8999 64.0962 36.8999 63.6346C36.8999 63.1731 37.3099 62.7693 37.7785 62.7693H60.9142V55.7885C60.9142 55.3269 61.3242 54.9231 61.7928 54.9231C62.2613 54.9231 62.6713 55.3269 62.6713 55.7885V63.6346C62.6713 64.0962 62.2613 64.5 61.7928 64.5Z" fill="white"/>
<path d="M28.2314 64.5001H18.6256C18.1571 64.5001 17.7471 64.0962 17.7471 63.6347C17.7471 63.1731 18.1571 62.7693 18.6256 62.7693H28.2314C28.6999 62.7693 29.1099 63.1731 29.1099 63.6347C29.1099 64.0962 28.6999 64.5001 28.2314 64.5001Z" fill="white"/>
<path d="M28.2316 73.9615C28.0559 73.9615 27.9387 73.9039 27.8216 73.8462C27.5287 73.6731 27.353 73.3846 27.353 73.0962V60.5769C27.353 60.1154 27.763 59.7115 28.2316 59.7115C28.7002 59.7115 29.1102 60.1154 29.1102 60.5769V71.5385L32.5659 69.4615C32.8587 69.2885 33.2102 69.2885 33.503 69.4615L36.9002 71.5385V60.5769C36.9002 60.1154 37.3102 59.7115 37.7787 59.7115C38.2473 59.7115 38.6573 60.1154 38.6573 60.5769V73.0962C38.6573 73.3846 38.4816 73.6731 38.1887 73.8462C37.8959 74.0192 37.5445 74.0192 37.3102 73.8462L33.0345 71.25L28.7002 73.8462C28.5245 73.9039 28.4073 73.9615 28.2316 73.9615Z" fill="white"/>
<path d="M44.9243 48.923C43.9871 48.923 42.9329 48.75 41.82 48.4038C41.2929 48.2307 40.6486 48.2307 40.2386 48.4038C38.54 48.923 37.1343 49.0961 35.8457 48.8653C30.9257 48 26.5914 43.7307 24.7757 38.0769C21.6129 27.6346 26.2986 23.0769 30.8086 21C32.4486 20.25 34.1471 19.9038 35.9043 19.9038C36.3729 19.9038 36.7829 20.3077 36.7829 20.7692C36.7829 21.2307 36.3729 21.6346 35.9043 21.6346C34.3814 21.6346 32.9757 21.923 31.5114 22.6153C25.8886 25.1538 24.19 30.173 26.4157 37.5C27.9971 42.5769 31.8043 46.3269 36.08 47.1346C37.0757 47.3076 38.1886 47.1923 39.5943 46.7307C40.4143 46.4423 41.41 46.4423 42.2886 46.7307C43.6357 47.1346 44.8071 47.3077 45.8029 47.0769C50.02 46.3846 54.0029 42.4615 55.4671 37.5C56.8143 33.173 56.6971 29.0192 55.1157 26.0769C54.0614 24.173 52.4214 22.8461 50.1957 22.2115C49.0829 21.923 48.0871 21.8077 47.15 21.8077C46.0957 21.8077 45.0414 21.923 43.87 22.2692C42.64 22.5 41.9371 22.5577 41.4686 22.5C41.2343 22.4423 41.0586 22.4423 40.8829 22.3846C40.7071 22.3269 40.59 22.3269 40.3557 22.2692C39.8871 22.2115 39.5357 21.75 39.5943 21.2884C39.6529 20.8269 40.1214 20.4807 40.59 20.5384C40.8829 20.5961 41.0586 20.6538 41.2929 20.7115C41.41 20.7692 41.5271 20.7692 41.6443 20.8269C42.0543 20.8846 43.1086 20.6538 43.46 20.5961C44.7486 20.25 45.9786 20.1346 47.15 20.1346C48.2629 20.1346 49.3757 20.3077 50.6643 20.5961C53.3586 21.3461 55.4086 22.9615 56.6386 25.2692C58.4543 28.673 58.63 33.173 57.1071 38.0192C55.4086 43.673 50.9571 48 46.0371 48.8077C45.7443 48.8653 45.3343 48.923 44.9243 48.923Z" fill="white"/>
<path d="M41.8201 26.9423C39.7701 26.9423 37.8958 26.1346 36.4315 24.75C36.0801 24.4038 36.0801 23.8846 36.4315 23.5384C36.783 23.1923 37.3101 23.1923 37.6615 23.5384C38.7744 24.6346 40.2387 25.2115 41.8201 25.2115C43.343 25.2115 44.8073 24.5769 45.8615 23.5384C46.213 23.1923 46.7401 23.1923 47.0915 23.5384C47.443 23.8846 47.443 24.4038 47.0915 24.75C45.803 26.1346 43.9287 26.9423 41.8201 26.9423C41.8787 26.9423 41.8787 26.9423 41.8201 26.9423Z" fill="white"/>
<path d="M41.2928 22.327C41.1171 22.327 40.9414 22.2693 40.8242 22.2116C40.6485 22.0962 40.4728 21.8654 40.4142 21.6923C40.3556 21.4616 39.3014 16.6731 41.6442 12.8654C43.9871 9.00004 48.8485 7.8462 49.0242 7.7885C49.4928 7.67312 49.9614 7.96158 50.0785 8.42312C50.1371 8.65389 51.3085 13.4424 48.8485 17.25C46.5056 21.1154 41.6442 22.2693 41.4685 22.327C41.4099 22.327 41.3514 22.327 41.2928 22.327ZM48.5556 9.69235C47.1499 10.2116 44.5728 11.3654 43.1671 13.6731C41.7614 15.9808 41.8199 18.8654 41.9956 20.3077C43.4014 19.7885 45.9785 18.6347 47.3842 16.327C48.9071 14.0193 48.7314 11.1347 48.5556 9.69235Z" fill="white"/>
<path d="M41.5858 26.3077C41.1173 26.3077 40.7073 25.9039 40.7073 25.4423C40.7073 23.4808 40.1216 19.7308 36.3144 16.6731C35.963 16.3847 35.9044 15.8077 36.1973 15.4616C36.4901 15.1154 37.0758 15.0577 37.4273 15.3462C41.8201 18.8654 42.523 23.1923 42.523 25.5C42.4644 25.9039 42.0544 26.3077 41.5858 26.3077Z" fill="white"/>
</svg>
