<svg width="69" height="64" viewBox="0 0 69 64" fill="none" xmlns="http://www.w3.org/2000/svg">
<g clip-path="url(#clip0_500_4532)">
<path d="M48.1389 29.7791C47.942 29.7791 47.7451 29.7298 47.5974 29.5822L41.7401 23.6756C41.4447 23.3803 41.4447 22.9373 41.7401 22.6419L60.0505 4.28227C62.1178 2.21496 65.3664 2.0673 67.2368 3.98694C69.1073 5.90658 69.0088 9.10599 66.9415 11.1733L48.6311 29.533C48.4834 29.6806 48.2865 29.7791 48.1389 29.7791ZM43.3151 23.1341L48.1389 27.9579L65.9571 10.1396C67.4337 8.66299 67.5814 6.34958 66.2524 5.02059C64.9234 3.69161 62.61 3.83928 61.1334 5.31592L43.3151 23.1341Z" fill="white"/>
<path d="M30.0253 47.5973C28.6471 47.5973 27.7119 47.302 27.515 47.2035C24.9555 46.5144 24.2172 44.1518 24.1187 43.758C23.9711 43.2658 22.4452 38.2944 27.515 33.1754C32.5848 28.1056 43.8074 24.9061 44.2504 24.7585C44.6441 24.66 45.0379 24.8569 45.1856 25.2507C45.284 25.6445 45.0871 26.0382 44.6934 26.1859C44.5949 26.2351 33.3724 29.4345 28.5979 34.209C23.9711 38.8359 25.5461 43.2166 25.5461 43.2658V43.315C25.5461 43.4135 26.0876 45.2347 27.958 45.7269C28.0072 45.7269 28.0072 45.7269 28.0564 45.7761C28.2041 45.8253 32.388 47.4004 36.9163 42.872C41.6908 38.0975 44.8902 26.7273 44.9395 26.6289C45.0379 26.2351 45.4809 25.989 45.8254 26.1367C46.2192 26.2351 46.4653 26.6289 46.3177 27.0227C46.17 27.5149 42.9706 38.8359 37.9008 43.9057C34.9475 46.9082 32.0434 47.5973 30.0253 47.5973Z" fill="white"/>
<path d="M26.8254 45.1855C26.6285 45.1855 26.4317 45.1362 26.284 44.9886C25.9887 44.6932 25.9887 44.2502 26.284 43.9549L44.6437 25.7429C44.939 25.4476 45.382 25.4476 45.6773 25.7429C45.9726 26.0383 45.9726 26.4812 45.6773 26.7766L27.3177 44.9886C27.2192 45.087 27.0223 45.1855 26.8254 45.1855Z" fill="white"/>
<path d="M62.2161 9.79512C62.0192 9.79512 61.8223 9.7459 61.6746 9.59823C61.3793 9.3029 61.3793 8.85991 61.6746 8.56458L63.0036 7.2356C63.2989 6.94027 63.7419 6.94027 64.0373 7.2356C64.3326 7.53093 64.3326 7.97392 64.0373 8.26925L62.7083 9.59823C62.5606 9.7459 62.4129 9.79512 62.2161 9.79512Z" fill="white"/>
<path d="M22.1495 58.3768C22.1003 58.3768 22.051 58.3768 22.0018 58.3768C21.8049 58.3276 17.6211 57.5401 12.945 55.3743C6.69389 52.421 2.6085 48.3356 1.18107 43.5119C-2.55977 30.9604 10.3855 25.103 15.6522 22.9373L14.4217 19.4918C14.3232 19.2457 14.3725 18.9503 14.5694 18.7534C14.7662 18.5566 15.0616 18.4581 15.3077 18.5566L27.4654 22.1005C27.7115 22.1497 27.9084 22.3466 27.9576 22.5927C28.0068 22.8388 27.9576 23.085 27.81 23.2818L20.6728 31.9941C20.5252 32.1909 20.2791 32.2894 20.0329 32.2402C19.7868 32.1909 19.59 32.0925 19.4423 31.8464L18.1133 29.3361C16.489 29.9268 11.9606 31.8956 11.2715 36.1779C11.2223 36.5717 10.8285 36.867 10.4347 36.8178C10.041 36.7686 9.74563 36.3748 9.79485 35.981C10.7301 29.8775 17.9656 27.8102 18.261 27.761C18.6055 27.6626 18.9501 27.8102 19.0977 28.1548L20.1806 30.2221L25.9888 23.1342L16.2921 20.3285L17.2765 23.085C17.4242 23.4787 17.2273 23.8725 16.8828 24.0202C4.87269 28.8439 0.245863 35.095 2.6085 43.0197C4.28203 48.5817 9.49953 52.0273 13.5849 53.9961C18.0641 56.1126 22.2479 56.9002 22.2971 56.9002C22.6909 56.9494 22.9862 57.3432 22.8878 57.737C22.7894 58.1307 22.494 58.3768 22.1495 58.3768Z" fill="white"/>
<path d="M48.877 60.8871C48.7294 60.8871 48.6309 60.8379 48.5325 60.7887L37.5068 54.636C37.3099 54.5375 37.1623 54.2914 37.1131 54.0453C37.0638 53.7992 37.2115 53.5531 37.4084 53.4054L46.3667 46.5144C46.5636 46.3667 46.8097 46.3175 47.0558 46.416C47.3019 46.5144 47.4496 46.6621 47.548 46.9082L48.3848 49.7138C50.0091 49.5661 54.8821 48.7294 56.5556 44.644C56.7033 44.2502 57.1463 44.1025 57.54 44.2502C57.9338 44.3979 58.0815 44.8409 57.9338 45.2346C55.5712 51.0428 48.1879 51.2889 47.8926 51.2889C47.548 51.2889 47.2527 51.092 47.1543 50.7475L46.4159 48.3848L39.1804 53.9469L47.991 58.869L47.6957 56.0142C47.6465 55.6204 47.9418 55.2759 48.3356 55.2266C56.5064 53.9961 67.3351 51.092 66.646 40.0172C66.3999 36.0794 64.3818 32.2401 60.5425 28.5977C60.2472 28.3024 60.2472 27.8594 60.5425 27.5641C60.8379 27.2688 61.2809 27.2688 61.5762 27.5641C65.6616 31.4526 67.8273 35.6364 68.1227 39.9187C68.9102 53.0117 54.8821 55.7188 49.2708 56.6048L49.6153 60.1488C49.6646 60.4441 49.5169 60.6902 49.2708 60.8379C49.1231 60.8379 48.9755 60.8871 48.877 60.8871Z" fill="white"/>
</g>
<defs>
<clipPath id="clip0_500_4532">
<rect width="68.9103" height="63.9881" fill="white"/>
</clipPath>
</defs>
</svg>
