<svg width="72" height="66" viewBox="0 0 72 66" fill="none" xmlns="http://www.w3.org/2000/svg">
<path d="M36.0002 65.34C17.9488 65.34 3.24023 50.82 3.24023 33C3.24023 15.18 17.9488 0.660034 36.0002 0.660034C54.0517 0.660034 68.7602 15.18 68.7602 33C68.7602 50.82 54.0517 65.34 36.0002 65.34ZM36.0002 2.18311C18.7717 2.18311 4.78309 15.9923 4.78309 33C4.78309 50.0077 18.7717 63.817 36.0002 63.817C53.2288 63.817 67.2174 50.0077 67.2174 33C67.2174 15.9923 53.2288 2.18311 36.0002 2.18311Z" fill="white"/>
<path d="M36.1545 59.7554C34.0973 59.7554 32.0402 59.5015 29.983 59.0446C22.9373 57.42 16.9202 53.2061 13.063 47.1138C9.20589 41.0215 8.02304 33.9138 9.66875 26.9077C9.77161 26.5015 10.183 26.2477 10.5945 26.3492C11.0059 26.4508 11.263 26.8569 11.1602 27.2631C9.61732 33.8631 10.7488 40.6154 14.4002 46.3523C18.0516 52.0892 23.7088 56.0492 30.343 57.5723C37.0288 59.0954 43.8687 57.9784 49.6802 54.3738C55.4916 50.82 59.503 45.1846 61.0459 38.6354C63.6687 27.3646 58.2687 15.7892 47.8802 10.4584C47.5202 10.2554 47.3659 9.79844 47.5716 9.44306C47.7773 9.08767 48.2402 8.93537 48.6002 9.13844C59.6573 14.7738 65.3659 27.0092 62.5887 38.9908C60.943 45.9461 56.6745 51.8861 50.503 55.6938C46.0802 58.3846 41.143 59.7554 36.1545 59.7554Z" fill="white"/>
<path d="M36.0001 33.7616C35.8458 33.7616 35.6401 33.7108 35.4858 33.5585L20.3144 21.0185C20.0058 20.7646 19.9544 20.2569 20.2115 19.9523C20.4687 19.6477 20.9829 19.5969 21.2915 19.8508L35.1772 31.3754V7.51386C35.1772 7.1077 35.5372 6.75232 35.9487 6.75232C36.3601 6.75232 36.7201 7.1077 36.7201 7.51386V33C36.7201 33.3046 36.5658 33.5585 36.2572 33.7108C36.2058 33.7616 36.1029 33.7616 36.0001 33.7616Z" fill="white"/>
<path d="M62.4859 33.7616H57.3945C56.983 33.7616 56.623 33.4062 56.623 33.0001C56.623 32.5939 56.983 32.2385 57.3945 32.2385H62.4859C62.8973 32.2385 63.2573 32.5939 63.2573 33.0001C63.2573 33.4062 62.8973 33.7616 62.4859 33.7616Z" fill="white"/>
<path d="M36.103 59.7554C35.6915 59.7554 35.3315 59.4 35.3315 58.9939V53.9677C35.3315 53.5616 35.6915 53.2062 36.103 53.2062C36.5144 53.2062 36.8744 53.5616 36.8744 53.9677V58.9939C36.8744 59.4508 36.5144 59.7554 36.103 59.7554Z" fill="white"/>
<path d="M14.8116 33.7616H9.72016C9.30873 33.7616 8.94873 33.4062 8.94873 33.0001C8.94873 32.5939 9.30873 32.2385 9.72016 32.2385H14.8116C15.223 32.2385 15.583 32.5939 15.583 33.0001C15.583 33.4062 15.2744 33.7616 14.8116 33.7616Z" fill="white"/>
</svg>
